<svg width="500" height="400" viewBox="0 0 500 400" fill="none" xmlns="http://www.w3.org/2000/svg">
  <!-- Background -->
  <rect width="500" height="400" rx="12" fill="#ffffff" stroke="#e2e8f0" stroke-width="2"/>
  
  <!-- Growth Chart -->
  <rect x="50" y="50" width="400" height="200" rx="8" fill="#f8fafc"/>
  
  <!-- Chart Line -->
  <path d="M70 200 L120 180 L170 160 L220 140 L270 120 L320 100 L370 80 L420 60" stroke="#0ea5e9" stroke-width="3" fill="none"/>
  
  <!-- Data Points -->
  <circle cx="70" cy="200" r="4" fill="#0ea5e9"/>
  <circle cx="120" cy="180" r="4" fill="#0ea5e9"/>
  <circle cx="170" cy="160" r="4" fill="#0ea5e9"/>
  <circle cx="220" cy="140" r="4" fill="#0ea5e9"/>
  <circle cx="270" cy="120" r="4" fill="#0ea5e9"/>
  <circle cx="320" cy="100" r="4" fill="#0ea5e9"/>
  <circle cx="370" cy="80" r="4" fill="#0ea5e9"/>
  <circle cx="420" cy="60" r="4" fill="#0ea5e9"/>
  
  <!-- Business Icons -->
  <g transform="translate(80, 280)">
    <rect width="60" height="60" rx="8" fill="#0ea5e9" opacity="0.1"/>
    <circle cx="30" cy="25" r="8" fill="#0ea5e9"/>
    <rect x="20" y="40" width="20" height="4" rx="2" fill="#0ea5e9"/>
    <rect x="25" y="48" width="10" height="4" rx="2" fill="#0ea5e9"/>
  </g>
  
  <g transform="translate(160, 280)">
    <rect width="60" height="60" rx="8" fill="#38bdf8" opacity="0.1"/>
    <path d="M20 30 L30 20 L40 30 L40 45 L20 45 Z" fill="#38bdf8"/>
    <circle cx="30" cy="25" r="2" fill="#38bdf8"/>
  </g>
  
  <g transform="translate(240, 280)">
    <rect width="60" height="60" rx="8" fill="#0284c7" opacity="0.1"/>
    <circle cx="30" cy="25" r="12" fill="#0284c7"/>
    <circle cx="30" cy="25" r="6" fill="white"/>
    <rect x="25" y="40" width="10" height="8" rx="2" fill="#0284c7"/>
  </g>
  
  <g transform="translate(320, 280)">
    <rect width="60" height="60" rx="8" fill="#0ea5e9" opacity="0.1"/>
    <rect x="20" y="20" width="20" height="20" rx="2" fill="#0ea5e9"/>
    <rect x="25" y="25" width="10" height="10" rx="1" fill="white"/>
    <rect x="20" y="45" width="20" height="4" rx="2" fill="#0ea5e9"/>
  </g>
  
  <!-- Growth Indicators -->
  <g transform="translate(50, 50)">
    <circle cx="10" cy="10" r="6" fill="#10b981"/>
    <path d="M7 10 L9 12 L13 8" stroke="white" stroke-width="2" stroke-linecap="round" stroke-linejoin="round"/>
  </g>
  
  <g transform="translate(420, 50)">
    <circle cx="10" cy="10" r="6" fill="#10b981"/>
    <path d="M7 10 L9 12 L13 8" stroke="white" stroke-width="2" stroke-linecap="round" stroke-linejoin="round"/>
  </g>
  
  <!-- Text Elements -->
  <text x="250" y="30" text-anchor="middle" fill="#1e293b" font-family="Inter, sans-serif" font-size="16" font-weight="600">Business Growth</text>
  <text x="250" y="370" text-anchor="middle" fill="#64748b" font-family="Inter, sans-serif" font-size="14">Technology Solutions</text>
</svg> 