<svg width="600" height="400" viewBox="0 0 600 400" fill="none" xmlns="http://www.w3.org/2000/svg">
  <!-- Background -->
  <rect width="600" height="400" rx="12" fill="#ffffff" stroke="#e2e8f0" stroke-width="2"/>
  
  <!-- Header -->
  <rect x="20" y="20" width="560" height="60" rx="8" fill="#f8fafc"/>
  <rect x="40" y="35" width="120" height="30" rx="6" fill="#0ea5e9"/>
  <text x="100" y="55" text-anchor="middle" fill="white" font-family="Inter, sans-serif" font-size="14" font-weight="600">Bilnix Dashboard</text>
  
  <!-- Sidebar -->
  <rect x="20" y="100" width="150" height="280" rx="8" fill="#f1f5f9"/>
  <rect x="35" y="120" width="120" height="8" rx="4" fill="#cbd5e1"/>
  <rect x="35" y="140" width="100" height="8" rx="4" fill="#cbd5e1"/>
  <rect x="35" y="160" width="110" height="8" rx="4" fill="#cbd5e1"/>
  <rect x="35" y="180" width="90" height="8" rx="4" fill="#cbd5e1"/>
  
  <!-- Main Content Area -->
  <rect x="190" y="100" width="390" height="280" rx="8" fill="#ffffff"/>
  
  <!-- Chart Area -->
  <rect x="210" y="120" width="350" height="120" rx="6" fill="#f8fafc"/>
  
  <!-- Chart Bars -->
  <rect x="230" y="200" width="20" height="30" rx="2" fill="#0ea5e9"/>
  <rect x="260" y="190" width="20" height="40" rx="2" fill="#38bdf8"/>
  <rect x="290" y="180" width="20" height="50" rx="2" fill="#0ea5e9"/>
  <rect x="320" y="170" width="20" height="60" rx="2" fill="#38bdf8"/>
  <rect x="350" y="185" width="20" height="45" rx="2" fill="#0ea5e9"/>
  <rect x="380" y="195" width="20" height="35" rx="2" fill="#38bdf8"/>
  <rect x="410" y="175" width="20" height="55" rx="2" fill="#0ea5e9"/>
  <rect x="440" y="185" width="20" height="45" rx="2" fill="#38bdf8"/>
  <rect x="470" y="190" width="20" height="40" rx="2" fill="#0ea5e9"/>
  <rect x="500" y="200" width="20" height="30" rx="2" fill="#38bdf8"/>
  <rect x="530" y="195" width="20" height="35" rx="2" fill="#0ea5e9"/>
  
  <!-- Chart Line -->
  <path d="M230 200 L260 190 L290 180 L320 170 L350 185 L380 195 L410 175 L440 185 L470 190 L500 200 L530 195" stroke="#0284c7" stroke-width="2" fill="none"/>
  
  <!-- Stats Cards -->
  <rect x="210" y="260" width="110" height="80" rx="6" fill="#f0f9ff" stroke="#0ea5e9" stroke-width="1"/>
  <rect x="220" y="270" width="90" height="6" rx="3" fill="#0ea5e9"/>
  <rect x="220" y="285" width="60" height="12" rx="6" fill="#0ea5e9"/>
  <rect x="220" y="305" width="40" height="8" rx="4" fill="#94a3b8"/>
  
  <rect x="340" y="260" width="110" height="80" rx="6" fill="#f0f9ff" stroke="#0ea5e9" stroke-width="1"/>
  <rect x="350" y="270" width="90" height="6" rx="3" fill="#0ea5e9"/>
  <rect x="350" y="285" width="60" height="12" rx="6" fill="#0ea5e9"/>
  <rect x="350" y="305" width="40" height="8" rx="4" fill="#94a3b8"/>
  
  <rect x="470" y="260" width="110" height="80" rx="6" fill="#f0f9ff" stroke="#0ea5e9" stroke-width="1"/>
  <rect x="480" y="270" width="90" height="6" rx="3" fill="#0ea5e9"/>
  <rect x="480" y="285" width="60" height="12" rx="6" fill="#0ea5e9"/>
  <rect x="480" y="305" width="40" height="8" rx="4" fill="#94a3b8"/>
  
  <!-- Recent Transactions -->
  <rect x="210" y="360" width="350" height="20" rx="4" fill="#f1f5f9"/>
  <rect x="220" y="365" width="80" height="10" rx="5" fill="#cbd5e1"/>
  <rect x="320" y="365" width="60" height="10" rx="5" fill="#cbd5e1"/>
  <rect x="400" y="365" width="40" height="10" rx="5" fill="#cbd5e1"/>
  <rect x="460" y="365" width="80" height="10" rx="5" fill="#cbd5e1"/>
  
  <!-- Icons -->
  <circle cx="40" cy="40" r="8" fill="#0ea5e9"/>
  <circle cx="560" cy="40" r="8" fill="#94a3b8"/>
  <circle cx="580" cy="40" r="8" fill="#94a3b8"/>
  
  <!-- Decorative Elements -->
  <circle cx="30" cy="30" r="2" fill="#e2e8f0"/>
  <circle cx="570" cy="30" r="2" fill="#e2e8f0"/>
  <circle cx="30" cy="370" r="2" fill="#e2e8f0"/>
  <circle cx="570" cy="370" r="2" fill="#e2e8f0"/>
</svg> 